<?xml version="1.0" encoding="utf-8"?>
<!-- Generator: Adobe Illustrator 22.1.0, SVG Export Plug-In . SVG Version: 6.00 Build 0)  -->
<svg version="1.1" id="Layer_1" xmlns="http://www.w3.org/2000/svg" xmlns:xlink="http://www.w3.org/1999/xlink" x="0px" y="0px"
	 viewBox="0 0 108.3 71.1" style="enable-background:new 0 0 108.3 71.1;" xml:space="preserve">
<style type="text/css">
	.st0{fill:#E7E7E7;}
	.st1{opacity:0.9;fill:#FBFBFB;enable-background:new    ;}
	.st2{fill:#FBFBFB;}
</style>
<title>Asset 1</title>
<g id="Layer_2_1_">
	<g id="Layer_1-2">
		<polygon class="st0" points="63,15 42.7,0 23,15 23.1,47.4 63.1,47.4 		"/>
		<polygon class="st1" points="85.2,15 64.9,0 45.2,15 45.3,47.4 85.3,47.4 		"/>
		<path class="st2" d="M0,59.2h2.3L6,68h0.1l3.7-8.8h2.3v11.6h-1.6v-9.5l0,0l-3.9,9.5h-1l-4-9.5l0,0v9.5H0V59.2z"/>
		<path class="st2" d="M20.3,71.1c-0.8,0-1.7-0.1-2.5-0.5c-0.7-0.3-1.3-0.7-1.9-1.3c-0.5-0.6-1-1.2-1.2-1.9c-0.6-1.6-0.6-3.3,0-4.8
			c0.3-0.7,0.7-1.4,1.2-1.9c0.5-0.6,1.2-1,1.9-1.3c1.6-0.6,3.3-0.6,4.9,0c0.7,0.3,1.4,0.7,1.9,1.3c0.5,0.6,1,1.2,1.2,1.9
			c0.6,1.6,0.6,3.3,0,4.8c-0.3,0.7-0.7,1.4-1.2,1.9c-0.5,0.6-1.2,1-1.9,1.3C22,71,21.2,71.1,20.3,71.1z M20.3,69.6
			c1.8,0,3.5-1.1,4.1-2.8c0.4-1.2,0.4-2.4,0-3.6c-0.2-0.5-0.5-1-0.9-1.5c-0.4-0.4-0.9-0.8-1.4-1c-1.7-0.8-3.7-0.4-5,1
			c-0.4,0.4-0.7,0.9-0.9,1.5c-0.4,1.2-0.4,2.4,0,3.6c0.2,0.5,0.5,1,0.9,1.5c0.4,0.4,0.9,0.8,1.4,1C19.1,69.5,19.7,69.6,20.3,69.6z"
			/>
		<path class="st2" d="M28.4,59.2h4c0.7,0,1.5,0.1,2.2,0.3c0.6,0.2,1.1,0.4,1.6,0.7c0.4,0.3,0.8,0.7,1.1,1.1
			c0.3,0.4,0.5,0.8,0.7,1.2c0.2,0.4,0.3,0.8,0.4,1.3c0.1,0.4,0.1,0.8,0.1,1.2c0,0.7-0.1,1.5-0.4,2.2c-0.3,0.7-0.7,1.3-1.2,1.8
			c-0.6,0.6-1.3,1-2,1.3c-0.9,0.3-1.8,0.5-2.7,0.5h-3.8V59.2z M29.9,69.3h2c0.6,0,1.3-0.1,1.9-0.3c0.6-0.2,1.1-0.4,1.6-0.8
			c0.5-0.4,0.8-0.8,1.1-1.3c0.3-0.6,0.4-1.2,0.4-1.9c0-0.4-0.1-0.9-0.2-1.3c-0.1-0.5-0.4-1-0.7-1.4c-0.4-0.5-0.8-0.9-1.4-1.1
			c-0.7-0.3-1.5-0.5-2.3-0.5h-2.4V69.3z"/>
		<path class="st2" d="M44.4,59.2h1.4l5,11.6H49l-3.8-9.1l-4.1,9.1h-1.9L44.4,59.2z M43.4,56.1c0.3,0,0.5,0.1,0.7,0.3
			c0.2,0.2,0.3,0.4,0.3,0.7c0,0.3-0.1,0.5-0.3,0.7c-0.2,0.2-0.5,0.3-0.7,0.3c-0.3,0-0.5-0.1-0.7-0.3c-0.2-0.2-0.3-0.5-0.3-0.7
			c0-0.3,0.1-0.5,0.3-0.7C42.9,56.2,43.1,56.1,43.4,56.1L43.4,56.1z M46.8,56.1c0.3,0,0.5,0.1,0.7,0.3c0.2,0.2,0.3,0.4,0.3,0.7
			c0,0.3-0.1,0.5-0.3,0.7c-0.2,0.2-0.5,0.3-0.7,0.3c-0.3,0-0.5-0.1-0.7-0.3c-0.2-0.2-0.3-0.5-0.3-0.7c0-0.3,0.1-0.5,0.3-0.7
			C46.3,56.2,46.5,56.1,46.8,56.1L46.8,56.1z"/>
		<path class="st2" d="M52.3,59.2h4.1c0.6,0,1.2,0.1,1.8,0.3c0.4,0.2,0.8,0.4,1.1,0.8c0.3,0.3,0.5,0.6,0.6,1
			c0.1,0.4,0.2,0.7,0.2,1.1c0,0.4-0.1,0.7-0.2,1.1c-0.1,0.3-0.3,0.7-0.6,0.9c-0.3,0.3-0.6,0.5-0.9,0.7c-0.4,0.2-0.8,0.3-1.2,0.3
			l3.3,5.3h-2l-3-5.1h-1.7v5.1h-1.6V59.2z M53.9,64.3H56c0.3,0,0.6,0,0.9-0.1c0.3,0,0.6-0.1,0.8-0.3c0.2-0.1,0.4-0.3,0.6-0.6
			c0.2-0.3,0.2-0.7,0.2-1c0-0.3-0.1-0.7-0.2-1c-0.1-0.2-0.3-0.4-0.6-0.6c-0.3-0.1-0.5-0.2-0.8-0.3c-0.3-0.1-0.6-0.1-0.9-0.1h-2.1
			V64.3z"/>
		<path class="st2" d="M66.2,59.2h3.3c0.4,0,0.9,0,1.3,0.1c0.4,0.1,0.8,0.2,1.2,0.5c0.4,0.2,0.7,0.5,0.9,0.9c0.2,0.5,0.4,1,0.3,1.6
			c0,0.6-0.2,1.1-0.5,1.5c-0.4,0.5-0.9,0.8-1.6,0.9l0,0c0.3,0,0.7,0.1,1,0.3c0.3,0.1,0.6,0.3,0.8,0.6c0.2,0.3,0.4,0.6,0.5,0.9
			c0.1,0.4,0.2,0.7,0.2,1.1c0,0.6-0.1,1.1-0.4,1.6c-0.2,0.4-0.6,0.8-1,1c-0.4,0.2-0.8,0.4-1.3,0.5c-0.4,0.1-0.8,0.1-1.3,0.1h-3.6
			V59.2z M67.3,64.2h2.2c0.5,0,0.9,0,1.4-0.2c0.3-0.1,0.6-0.3,0.8-0.5c0.2-0.2,0.3-0.4,0.4-0.6c0.1-0.2,0.1-0.4,0.1-0.6
			c0-0.3-0.1-0.7-0.2-1c-0.1-0.3-0.3-0.5-0.6-0.6c-0.2-0.2-0.5-0.3-0.8-0.3c-0.3-0.1-0.7-0.1-1-0.1h-2.4V64.2z M67.3,69.8h2.5
			c0.5,0,1-0.1,1.5-0.2c0.3-0.1,0.6-0.3,0.9-0.6c0.2-0.2,0.3-0.5,0.4-0.7c0.1-0.2,0.1-0.5,0.1-0.7c0-0.4-0.1-0.8-0.2-1.1
			c-0.2-0.3-0.4-0.5-0.6-0.7c-0.3-0.2-0.6-0.3-0.9-0.4c-0.3-0.1-0.7-0.1-1-0.1h-2.7V69.8z"/>
		<path class="st2" d="M79.2,65.8l-4.3-6.6h1.3l3.5,5.5l3.6-5.5h1.2l-4.3,6.6v5h-1.1V65.8z"/>
		<path class="st2" d="M95.6,70c-0.7,0.4-1.4,0.7-2.1,0.8C92.7,71,92,71.1,91.2,71c-0.8,0-1.7-0.1-2.4-0.4c-0.7-0.3-1.4-0.7-1.9-1.3
			c-0.5-0.6-1-1.2-1.2-1.9c-0.6-1.6-0.6-3.3,0-4.9c0.3-0.7,0.7-1.4,1.2-1.9c0.5-0.5,1.2-1,1.9-1.3c0.8-0.3,1.6-0.5,2.4-0.5
			c1.6-0.1,3.1,0.5,4.2,1.6l-0.8,0.8c-0.2-0.2-0.4-0.4-0.6-0.6c-0.3-0.2-0.5-0.3-0.8-0.5c-0.3-0.1-0.6-0.2-0.9-0.3
			c-0.3-0.1-0.7-0.1-1-0.1c-0.7,0-1.4,0.1-2,0.4c-0.6,0.2-1.1,0.6-1.6,1.1c-0.4,0.5-0.8,1-1,1.6c-0.4,1.3-0.4,2.7,0,4
			c0.2,0.6,0.6,1.2,1,1.6c0.4,0.5,1,0.8,1.6,1.1c0.6,0.3,1.3,0.4,2,0.4c0.6,0,1.2,0,1.8,0c0.5-0.1,1-0.3,1.5-0.5v-3.9h-2.8v-1h3.9
			V70z"/>
		<path class="st2" d="M108.3,70c-0.7,0.4-1.4,0.7-2.1,0.8c-0.7,0.2-1.5,0.2-2.2,0.2c-0.8,0-1.7-0.1-2.4-0.4
			c-0.7-0.3-1.4-0.7-1.9-1.3c-0.5-0.6-0.9-1.2-1.2-1.9c-0.6-1.6-0.6-3.3,0-4.9c0.3-0.7,0.7-1.4,1.2-1.9c0.5-0.5,1.2-1,1.9-1.3
			c0.8-0.3,1.6-0.5,2.4-0.5c1.6-0.1,3.1,0.5,4.2,1.6l-0.8,0.8c-0.2-0.2-0.4-0.4-0.7-0.6c-0.3-0.2-0.5-0.3-0.8-0.5
			c-0.3-0.1-0.6-0.2-0.9-0.2c-0.3-0.1-0.7-0.1-1-0.1c-0.7,0-1.4,0.1-2,0.4c-0.6,0.2-1.1,0.6-1.6,1.1c-0.4,0.5-0.8,1-1,1.6
			c-0.4,1.3-0.4,2.7,0,4c0.2,0.6,0.6,1.2,1,1.6c0.4,0.5,1,0.8,1.6,1.1c0.6,0.3,1.3,0.4,2,0.4c0.6,0,1.2,0,1.8-0.2
			c0.5-0.1,1-0.3,1.5-0.5v-3.9h-2.8v-1h3.9L108.3,70z"/>
	</g>
</g>
</svg>
