<?xml version="1.0" encoding="utf-8"?>
<!-- Generator: Adobe Illustrator 22.1.0, SVG Export Plug-In . SVG Version: 6.00 Build 0)  -->
<svg version="1.1" id="Layer_1" xmlns="http://www.w3.org/2000/svg" xmlns:xlink="http://www.w3.org/1999/xlink" x="0px" y="0px"
	 viewBox="0 0 177 47.4" style="enable-background:new 0 0 177 47.4;" xml:space="preserve">
<style type="text/css">
	.st0{fill:#003164;}
	.st1{opacity:0.9;fill:#034B8C;enable-background:new    ;}
</style>
<title>Asset 1</title>
<g>
	<polygon class="st0" points="40,15 19.6,0 0,15 0,47.4 40,47.4 	"/>
	<polygon class="st1" points="62.2,15 41.8,0 22.2,15 22.2,47.4 62.3,47.4 	"/>
</g>
<g>
	<path d="M68.7,19.3h2.4l3.6,8.8h0.1l3.7-8.8h2.3v11.6h-1.6v-9.5l0,0l-4,9.5h-1l-4-9.5l0,0v9.5h-1.6V19.3z"/>
	<path d="M89,31.2c-0.8,0-1.7-0.1-2.5-0.5c-0.7-0.3-1.3-0.7-1.9-1.3c-0.5-0.6-1-1.2-1.2-1.9c-0.6-1.6-0.6-3.3,0-4.8
		c0.3-0.7,0.7-1.4,1.2-1.9c0.5-0.6,1.2-1,1.9-1.3c1.6-0.6,3.3-0.6,4.9,0c0.7,0.3,1.4,0.7,1.9,1.3c0.5,0.6,1,1.2,1.2,1.9
		c0.6,1.6,0.6,3.3,0,4.8c-0.3,0.7-0.7,1.4-1.2,1.9c-0.5,0.6-1.2,1-1.9,1.3C90.7,31.1,89.9,31.2,89,31.2z M89,29.8
		c1.8,0,3.5-1.1,4.1-2.8c0.4-1.2,0.4-2.4,0-3.6c-0.2-0.5-0.5-1-0.9-1.5c-0.4-0.4-0.9-0.8-1.4-1c-1.7-0.8-3.7-0.4-5,1
		c-0.4,0.4-0.7,0.9-0.9,1.5c-0.4,1.2-0.4,2.4,0,3.6c0.2,0.5,0.5,1,0.9,1.5c0.4,0.4,0.9,0.8,1.4,1C87.8,29.6,88.4,29.8,89,29.8z"/>
	<path d="M97.1,19.3h4c0.7,0,1.5,0.1,2.2,0.3c0.6,0.2,1.1,0.4,1.6,0.7c0.4,0.3,0.8,0.7,1.1,1.1c0.3,0.4,0.5,0.8,0.7,1.2
		c0.2,0.4,0.3,0.8,0.4,1.3c0.1,0.4,0.1,0.8,0.1,1.2c0,0.7-0.1,1.5-0.4,2.2c-0.3,0.7-0.7,1.3-1.2,1.8c-0.6,0.6-1.3,1-2,1.3
		c-0.9,0.3-1.8,0.5-2.7,0.5h-3.8V19.3z M98.6,29.5h2c0.6,0,1.3-0.1,1.9-0.3c0.6-0.2,1.1-0.4,1.6-0.8c0.5-0.4,0.8-0.8,1.1-1.3
		c0.3-0.6,0.4-1.2,0.4-1.9c0-0.4-0.1-0.9-0.2-1.3c-0.1-0.5-0.4-1-0.7-1.4c-0.4-0.5-0.8-0.9-1.4-1.1c-0.7-0.3-1.5-0.5-2.3-0.5h-2.4
		V29.5z"/>
	<path d="M113.1,19.3h1.4l5,11.6h-1.8l-3.8-9.1l-4.1,9.1H108L113.1,19.3z M112.1,16.2c0.3,0,0.5,0.1,0.7,0.3
		c0.2,0.2,0.3,0.4,0.3,0.7c0,0.3-0.1,0.5-0.3,0.7c-0.2,0.2-0.5,0.3-0.7,0.3c-0.3,0-0.5-0.1-0.7-0.3c-0.2-0.2-0.3-0.5-0.3-0.7
		c0-0.3,0.1-0.5,0.3-0.7C111.6,16.3,111.8,16.2,112.1,16.2L112.1,16.2z M115.5,16.2c0.3,0,0.5,0.1,0.7,0.3c0.2,0.2,0.3,0.4,0.3,0.7
		c0,0.3-0.1,0.5-0.3,0.7c-0.2,0.2-0.5,0.3-0.7,0.3c-0.3,0-0.5-0.1-0.7-0.3c-0.2-0.2-0.3-0.5-0.3-0.7c0-0.3,0.1-0.5,0.3-0.7
		C115,16.3,115.2,16.2,115.5,16.2L115.5,16.2z"/>
	<path d="M121,19.3h4.1c0.6,0,1.2,0.1,1.8,0.3c0.4,0.2,0.8,0.4,1.1,0.8c0.3,0.3,0.5,0.6,0.6,1c0.1,0.4,0.2,0.7,0.2,1.1
		c0,0.4-0.1,0.7-0.2,1.1c-0.1,0.3-0.3,0.7-0.6,0.9c-0.3,0.3-0.6,0.5-0.9,0.7c-0.4,0.2-0.8,0.3-1.2,0.3l3.3,5.3h-2l-3-5.1h-1.7v5.1
		H121V19.3z M122.6,24.4h2.1c0.3,0,0.6,0,0.9-0.1c0.3,0,0.6-0.1,0.8-0.3c0.2-0.1,0.4-0.3,0.6-0.6c0.2-0.3,0.2-0.7,0.2-1
		c0-0.3-0.1-0.7-0.2-1c-0.1-0.2-0.3-0.4-0.6-0.6c-0.3-0.1-0.5-0.2-0.8-0.3c-0.3-0.1-0.6-0.1-0.9-0.1h-2.1V24.4z"/>
	<path d="M134.9,19.3h3.4c0.4,0,0.9,0,1.3,0.1c0.4,0.1,0.8,0.2,1.2,0.5c0.4,0.2,0.7,0.5,0.9,0.9c0.2,0.5,0.4,1,0.3,1.6
		c0,0.6-0.2,1.1-0.5,1.5c-0.4,0.5-0.9,0.8-1.6,0.9l0,0c0.3,0,0.7,0.1,1,0.3c0.3,0.1,0.6,0.3,0.8,0.6c0.2,0.3,0.4,0.6,0.5,0.9
		c0.1,0.4,0.2,0.7,0.2,1.1c0,0.6-0.1,1.1-0.4,1.6c-0.2,0.4-0.6,0.8-1,1c-0.4,0.2-0.8,0.4-1.3,0.5c-0.4,0.1-0.8,0.1-1.3,0.1h-3.6
		V19.3z M136,24.3h2.2c0.5,0,0.9,0,1.4-0.2c0.3-0.1,0.6-0.3,0.8-0.5c0.2-0.2,0.3-0.4,0.4-0.6c0.1-0.2,0.1-0.4,0.1-0.6
		c0-0.3-0.1-0.7-0.2-1c-0.1-0.3-0.3-0.5-0.6-0.6c-0.2-0.2-0.5-0.3-0.8-0.3c-0.3-0.1-0.7-0.1-1-0.1H136V24.3z M136,29.9h2.5
		c0.5,0,1-0.1,1.5-0.2c0.3-0.1,0.6-0.3,0.9-0.6c0.2-0.2,0.3-0.5,0.4-0.7c0.1-0.2,0.1-0.5,0.1-0.7c0-0.4-0.1-0.8-0.2-1.1
		c-0.2-0.3-0.4-0.5-0.6-0.7c-0.3-0.2-0.6-0.3-0.9-0.4c-0.3-0.1-0.7-0.1-1-0.1H136V29.9z"/>
	<path d="M147.9,25.9l-4.3-6.6h1.3l3.5,5.5l3.6-5.5h1.2l-4.3,6.6v5h-1.1V25.9z"/>
	<path d="M164.3,30.1c-0.7,0.4-1.4,0.7-2.1,0.8c-0.7,0.2-1.5,0.2-2.2,0.2c-0.8,0-1.7-0.1-2.4-0.4c-0.7-0.3-1.4-0.7-1.9-1.3
		c-0.5-0.6-1-1.2-1.2-1.9c-0.6-1.6-0.6-3.3,0-4.9c0.3-0.7,0.7-1.4,1.2-1.9c0.5-0.5,1.2-1,1.9-1.3c0.8-0.3,1.6-0.5,2.4-0.5
		c1.6-0.1,3.1,0.5,4.2,1.6l-0.8,0.8c-0.2-0.2-0.4-0.4-0.6-0.6c-0.3-0.2-0.5-0.3-0.8-0.5c-0.3-0.1-0.6-0.2-0.9-0.3
		c-0.3-0.1-0.7-0.1-1-0.1c-0.7,0-1.4,0.1-2,0.4c-0.6,0.2-1.1,0.6-1.6,1.1c-0.4,0.5-0.8,1-1,1.6c-0.4,1.3-0.4,2.7,0,4
		c0.2,0.6,0.6,1.2,1,1.6c0.4,0.5,1,0.8,1.6,1.1c0.6,0.3,1.3,0.4,2,0.4c0.6,0,1.2,0,1.8,0c0.5-0.1,1-0.3,1.5-0.5v-3.9h-2.8v-1h3.9
		V30.1z"/>
	<path d="M177,30.1c-0.7,0.4-1.4,0.7-2.1,0.8c-0.7,0.2-1.5,0.2-2.2,0.2c-0.8,0-1.7-0.1-2.4-0.4c-0.7-0.3-1.4-0.7-1.9-1.3
		c-0.5-0.6-0.9-1.2-1.2-1.9c-0.6-1.6-0.6-3.3,0-4.9c0.3-0.7,0.7-1.4,1.2-1.9c0.5-0.5,1.2-1,1.9-1.3c0.8-0.3,1.6-0.5,2.4-0.5
		c1.6-0.1,3.1,0.5,4.2,1.6l-0.8,0.8c-0.2-0.2-0.4-0.4-0.7-0.6c-0.3-0.2-0.5-0.3-0.8-0.5c-0.3-0.1-0.6-0.2-0.9-0.2
		c-0.3-0.1-0.7-0.1-1-0.1c-0.7,0-1.4,0.1-2,0.4c-0.6,0.2-1.1,0.6-1.6,1.1c-0.4,0.5-0.8,1-1,1.6c-0.4,1.3-0.4,2.7,0,4
		c0.2,0.6,0.6,1.2,1,1.6c0.4,0.5,1,0.8,1.6,1.1c0.6,0.3,1.3,0.4,2,0.4c0.6,0,1.2,0,1.8-0.2c0.5-0.1,1-0.3,1.5-0.5v-3.9h-2.8v-1h3.9
		L177,30.1z"/>
</g>
</svg>
