<?xml version="1.0" encoding="utf-8"?>
<!-- Generator: Adobe Illustrator 22.1.0, SVG Export Plug-In . SVG Version: 6.00 Build 0)  -->
<svg version="1.1" id="Capa_1" xmlns="http://www.w3.org/2000/svg" xmlns:xlink="http://www.w3.org/1999/xlink" x="0px" y="0px"
	 viewBox="0 0 512 512" style="enable-background:new 0 0 512 512;" xml:space="preserve">
<style type="text/css">
	.st0{fill:#003164;}
</style>
<g>
	<g>
		<path class="st0" d="M502,492h-44v-79c0-5.5-4.5-10-10-10s-10,4.5-10,10v79H318V302c0-5.5-4.5-10-10-10H204c-5.5,0-10,4.5-10,10
			v190H74V266h3.8c2.7,0,5.2-1.1,7.1-2.9L256,92l171.1,171.1c1.9,1.9,4.4,2.9,7.1,2.9h3.8v75c0,5.5,4.5,10,10,10s10-4.5,10-10v-75
			h44c4,0,7.7-2.4,9.2-6.2s0.7-8-2.2-10.9l-246-246c-3.9-3.9-10.2-3.9-14.1,0l-94,94c-3.9,3.9-3.9,10.2,0,14.1
			c3.9,3.9,10.2,3.9,14.1,0L256,24.1L477.9,246h-39.6L263.1,70.8c-3.9-3.9-10.2-3.9-14.1,0L73.7,246H34.1l78.9-78.9
			c3.9-3.9,3.9-10.2,0-14.1c-3.9-3.9-10.2-3.9-14.1,0l-96,96c-2.9,2.9-3.7,7.2-2.2,10.9S6,266,10,266h44v226H10c-5.5,0-10,4.5-10,10
			s4.5,10,10,10h54h140h104h140h54c5.5,0,10-4.5,10-10S507.5,492,502,492z M298,492h-84V312h84V492z"/>
	</g>
</g>
<g>
	<g>
		<path class="st0" d="M406,292h-56c-5.5,0-10,4.5-10,10v100c0,5.5,4.5,10,10,10h56c5.5,0,10-4.5,10-10V302
			C416,296.5,411.5,292,406,292z M396,392h-36v-80h36V392z"/>
	</g>
</g>
<g>
	<g>
		<path class="st0" d="M162,292h-56c-5.5,0-10,4.5-10,10v100c0,5.5,4.5,10,10,10h56c5.5,0,10-4.5,10-10V302
			C172,296.5,167.5,292,162,292z M152,392h-36v-80h36V392z"/>
	</g>
</g>
<g>
	<g>
		<path class="st0" d="M256,164.3c-25.4,0-46,20.6-46,46s20.6,46,46,46s46-20.6,46-46S281.4,164.3,256,164.3z M256,236.3
			c-14.3,0-26-11.7-26-26s11.7-26,26-26s26,11.7,26,26S270.3,236.3,256,236.3z"/>
	</g>
</g>
<g>
	<g>
		<path class="st0" d="M244.1,394.9c-1.9-1.9-4.4-2.9-7.1-2.9c-2.6,0-5.2,1.1-7.1,2.9s-2.9,4.4-2.9,7.1s1.1,5.2,2.9,7.1
			c1.9,1.9,4.4,2.9,7.1,2.9s5.2-1.1,7.1-2.9c1.9-1.9,2.9-4.4,2.9-7.1S245.9,396.8,244.1,394.9z"/>
	</g>
</g>
<g>
	<g>
		<path class="st0" d="M140.1,125.9c-1.9-1.9-4.4-2.9-7.1-2.9s-5.2,1.1-7.1,2.9s-2.9,4.4-2.9,7.1s1.1,5.2,2.9,7.1s4.4,2.9,7.1,2.9
			s5.2-1.1,7.1-2.9c1.9-1.9,2.9-4.4,2.9-7.1S141.9,127.8,140.1,125.9z"/>
	</g>
</g>
<g>
	<g>
		<path class="st0" d="M455.1,367.3c-1.9-1.9-4.4-2.9-7.1-2.9c-2.6,0-5.2,1.1-7.1,2.9c-1.9,1.9-2.9,4.4-2.9,7.1s1.1,5.2,2.9,7.1
			c1.9,1.9,4.4,2.9,7.1,2.9s5.2-1.1,7.1-2.9c1.9-1.9,2.9-4.4,2.9-7.1C458,371.7,456.9,369.1,455.1,367.3z"/>
	</g>
</g>
</svg>
