<?xml version="1.0" encoding="utf-8"?>
<!-- Generator: Adobe Illustrator 22.1.0, SVG Export Plug-In . SVG Version: 6.00 Build 0)  -->
<svg version="1.1" id="Capa_1" xmlns="http://www.w3.org/2000/svg" xmlns:xlink="http://www.w3.org/1999/xlink" x="0px" y="0px"
	 viewBox="0 0 512 512" style="enable-background:new 0 0 512 512;" xml:space="preserve">
<style type="text/css">
	.st0{fill:#003164;}
</style>
<g>
	<g>
		<path class="st0" d="M155.9,356.7l-0.3-0.3c-3.9-3.9-10.2-3.9-14.1,0c-3.9,3.9-3.9,10.2,0,14.1l0.3,0.3c1.9,1.9,4.5,2.9,7,2.9
			c2.6,0,5.1-1,7.1-3C159.8,366.9,159.8,360.6,155.9,356.7z"/>
	</g>
</g>
<g>
	<g>
		<path class="st0" d="M370.6,141.4c-63.2-63.2-165.9-63.2-229.1,0c-51.7,51.7-62.4,132-25.9,195.3c2.8,4.8,8.9,6.4,13.7,3.7
			c4.8-2.8,6.4-8.9,3.7-13.7c-31.9-55.5-22.6-125.9,22.7-171.2c55.4-55.4,145.5-55.4,200.8,0c55.4,55.4,55.4,145.5,0,200.8
			c-45.6,45.6-116.3,54.8-171.9,22.3c-4.8-2.8-10.9-1.2-13.7,3.6c-2.8,4.8-1.2,10.9,3.6,13.7c25.4,14.8,53.5,22,81.5,22
			c41.9,0,83.5-16.3,114.7-47.5C433.7,307.4,433.7,204.6,370.6,141.4z"/>
	</g>
</g>
<g>
	<g>
		<path class="st0" d="M512,212.1c0-4.9-3.6-9.1-8.4-9.9l-36.9-5.8L447,149.1l21.9-30.3c2.9-4,2.5-9.5-1-12.9l-62-62
			c-3.5-3.5-9-3.9-12.9-1l-30.2,22l-47.3-19.6l-5.9-36.9c-0.8-4.9-5-8.4-9.9-8.4c0,0,0,0,0,0l-87.7,0c-4.9,0-9.1,3.6-9.9,8.4
			l-5.8,36.9L149.1,65L118.9,43c-4-2.9-9.5-2.5-12.9,1l-62,62c-3.5,3.5-3.9,9-1,12.9l22,30.2l-19.6,47.3l-36.9,5.9
			c-4.9,0.8-8.4,5-8.4,9.9l0,87.7c0,4.9,3.6,9.1,8.4,9.9l36.9,5.8L65,362.9L43,393.1c-2.9,4-2.5,9.5,1,12.9l62,62
			c3.5,3.5,9,3.9,12.9,1l30.2-22l47.3,19.6l5.9,36.9c0.8,4.9,5,8.4,9.9,8.4c0,0,0,0,0,0l87.7,0c4.9,0,9.1-3.6,9.9-8.4l5.8-36.9
			l47.2-19.6l30.3,21.9c4,2.9,9.5,2.5,12.9-1l62-62c3.5-3.5,3.9-9,1-12.9l-22-30.2l19.6-47.3l36.9-5.9c4.9-0.8,8.4-5,8.4-9.9
			L512,212.1z M458,296.6c-3.4,0.5-6.3,2.8-7.7,6.1l-23.8,57.6c-1.3,3.2-0.9,6.9,1.1,9.7l20.2,27.8L398,447.8l-27.9-20.2
			c-2.8-2-6.5-2.5-9.7-1.1l-57.6,23.9c-3.2,1.3-5.5,4.2-6,7.7l-5.4,34l-70.6,0l-5.4-34c-0.5-3.4-2.8-6.3-6.1-7.7l-57.6-23.8
			c-1.2-0.5-2.5-0.8-3.8-0.8c-2.1,0-4.1,0.6-5.9,1.9l-27.8,20.2L64.2,398l20.2-27.9c2-2.8,2.5-6.5,1.1-9.7l-23.9-57.6
			c-1.3-3.2-4.2-5.5-7.7-6l-34-5.4l0-70.6l34-5.4c3.4-0.5,6.3-2.8,7.7-6.1l23.8-57.6c1.3-3.2,0.9-6.9-1.2-9.7l-20.2-27.8L114,64.2
			l27.9,20.2c2.8,2,6.5,2.5,9.7,1.1l57.6-23.9c3.2-1.3,5.5-4.2,6-7.7l5.4-34l70.6,0l5.4,34c0.5,3.4,2.8,6.3,6.1,7.7l57.6,23.8
			c3.2,1.3,6.9,0.9,9.7-1.2l27.8-20.2l49.9,49.9l-20.2,27.9c-2,2.8-2.5,6.5-1.1,9.7l23.9,57.6c1.3,3.2,4.2,5.5,7.7,6l34,5.4l0,70.6
			L458,296.6z"/>
	</g>
</g>
<g>
	<g>
		<path class="st0" d="M347.1,268.5c-12.5-11.4-29.3-16.3-45.9-13.7l-43.9-43.9c2.7-17.4-3.1-35.3-15.6-47.9
			c-15.8-15.8-39.3-20.6-60.1-12.3c-3.1,1.2-5.4,4-6.1,7.3c-0.7,3.3,0.3,6.7,2.7,9.1l14.5,14.5c3.1,3.1,3.1,8.1,0,11.1
			c-3.1,3.1-8.1,3.1-11.1,0L167,178.1c-2.4-2.4-5.8-3.4-9.1-2.7c-3.3,0.7-6,2.9-7.3,6c-8.7,21.5-3,46.5,14.2,62.1
			c12.5,11.4,29.3,16.3,46,13.7l43.9,43.9c-2.7,17.4,3,35.3,15.6,47.9c10.7,10.7,24.8,16.3,39.3,16.3c7,0,14.1-1.3,20.9-4.1
			c3.1-1.3,5.4-4,6.1-7.3s-0.4-6.7-2.7-9.1l-14.4-14.4c-3.1-3.1-3.1-8.1,0-11.1s8.1-3.1,11.1,0l14.4,14.4c2.4,2.4,5.8,3.4,9.1,2.7
			c3.3-0.7,6-3,7.3-6.1C370,308.9,364.3,284,347.1,268.5z M344.7,305.2c-10.9-10.9-28.6-10.9-39.4,0s-10.9,28.5,0,39.4l0.5,0.5
			c-7.9-0.9-15.4-4.4-21.3-10.2c-9-9-12.5-22.2-9.2-34.5c0.9-3.4-0.1-7.1-2.6-9.6l-51.5-51.5c-1.9-1.9-4.5-2.9-7.1-2.9
			c-0.9,0-1.7,0.1-2.6,0.3c-11.8,3.1-24.3,0.2-33.2-8c-6.6-6-10.5-14.1-11.5-22.5l0.6,0.6c10.9,10.9,28.6,10.9,39.4,0
			c10.9-10.9,10.9-28.6,0-39.4l-0.5-0.5c7.8,0.9,15.3,4.4,21.1,10.2c9,9,12.5,22.1,9.2,34.4c-0.9,3.4,0.1,7.1,2.6,9.6l51.5,51.5
			c2.5,2.5,6.2,3.5,9.6,2.6c11.8-3.1,24.2-0.1,33.2,8c6.5,5.9,10.5,13.9,11.4,22.3L344.7,305.2z"/>
	</g>
</g>
<g>
	<g>
		<path class="st0" d="M347.3,184.6c-16.5-21.1-39.8-35.9-65.8-41.7c-5.4-1.2-10.7,2.2-12,7.6c-1.2,5.4,2.2,10.7,7.6,12
			c21.5,4.8,40.8,17.1,54.4,34.5c2,2.5,4.9,3.8,7.9,3.8c2.2,0,4.3-0.7,6.2-2.1C350,195.2,350.7,188.9,347.3,184.6z"/>
	</g>
</g>
<g>
	<g>
		<path class="st0" d="M366.4,220.6l-0.1-0.5c-1.7-5.3-7.3-8.1-12.6-6.4c-5.3,1.7-8.1,7.3-6.4,12.6l0.1,0.4c1.4,4.2,5.3,7,9.5,7
			c1,0,2-0.2,3-0.5C365.2,231.5,368.1,225.9,366.4,220.6z"/>
	</g>
</g>
</svg>
